<svg id="Layer_1" data-name="Layer 1" xmlns="http://www.w3.org/2000/svg" viewBox="0 0 231.4 55.06"><path d="M75.8,22.15a.48.48,0,0,1-.36-.16.52.52,0,0,1-.14-.35.81.81,0,0,1,0-.22L81.07,5.88a.93.93,0,0,1,.29-.46A.92.92,0,0,1,82,5.23h3.09a.89.89,0,0,1,.61.19.93.93,0,0,1,.29.46l5.75,15.54a.81.81,0,0,1,0,.22.52.52,0,0,1-.14.35.48.48,0,0,1-.36.16H88.71a.74.74,0,0,1-.53-.17.87.87,0,0,1-.22-.32L87,19H80.11l-1,2.7a.87.87,0,0,1-.22.32.74.74,0,0,1-.53.17ZM81,15.84h5l-2.49-7Z" style="fill:#fff"/><path d="M99,22.39a7,7,0,0,1-3.11-.66,5,5,0,0,1-2.11-1.89,6,6,0,0,1-.85-3v-2a6.19,6.19,0,0,1,.84-3A4.91,4.91,0,0,1,95.84,10,7,7,0,0,1,99,9.34a7.4,7.4,0,0,1,2.76.44,6,6,0,0,1,1.86,1.13,4.75,4.75,0,0,1,1.07,1.41,3.44,3.44,0,0,1,.38,1.29.56.56,0,0,1-.16.43.6.6,0,0,1-.42.18H101.9a.47.47,0,0,1-.37-.14,1.18,1.18,0,0,1-.26-.37,2.51,2.51,0,0,0-.87-1.21,2.32,2.32,0,0,0-1.4-.36,2.17,2.17,0,0,0-1.71.7A3.35,3.35,0,0,0,96.64,15v1.71a3.5,3.5,0,0,0,.69,2.18,2.17,2.17,0,0,0,1.7.67,2.32,2.32,0,0,0,1.36-.36,2.58,2.58,0,0,0,.84-1.21,1.31,1.31,0,0,1,.24-.37.56.56,0,0,1,.39-.13h2.59a.6.6,0,0,1,.42.18.54.54,0,0,1,.16.42,3.82,3.82,0,0,1-.23,1,4.13,4.13,0,0,1-.66,1.13A5.27,5.27,0,0,1,103,21.29a6.36,6.36,0,0,1-1.71.8A8.1,8.1,0,0,1,99,22.39Z" style="fill:#fff"/><path d="M113,22.39a7,7,0,0,1-3.11-.66,5,5,0,0,1-2.11-1.89,6,6,0,0,1-.85-3v-2a6.19,6.19,0,0,1,.84-3A4.9,4.9,0,0,1,109.86,10,7,7,0,0,1,113,9.34a7.35,7.35,0,0,1,2.75.44,6,6,0,0,1,1.87,1.13,4.75,4.75,0,0,1,1.07,1.41,3.44,3.44,0,0,1,.38,1.29.56.56,0,0,1-.16.43.6.6,0,0,1-.42.18H115.9a.47.47,0,0,1-.37-.14,1.18,1.18,0,0,1-.26-.37,2.51,2.51,0,0,0-.87-1.21,2.32,2.32,0,0,0-1.33-.36,2.17,2.17,0,0,0-1.71.7,3.35,3.35,0,0,0-.68,2.18v1.71a3.5,3.5,0,0,0,.69,2.18,2.17,2.17,0,0,0,1.7.67,2.32,2.32,0,0,0,1.36-.36,2.58,2.58,0,0,0,.84-1.21,1.31,1.31,0,0,1,.24-.37.56.56,0,0,1,.39-.13h2.59a.6.6,0,0,1,.42.18.54.54,0,0,1,.16.42,3.82,3.82,0,0,1-.23,1,4.13,4.13,0,0,1-.66,1.13A5.14,5.14,0,0,1,117,21.29a6.36,6.36,0,0,1-1.71.8A8.1,8.1,0,0,1,113,22.39Z" style="fill:#fff"/><path d="M126,22.39a4.88,4.88,0,0,1-2.48-.64,4.33,4.33,0,0,1-1.66-1.86,6.74,6.74,0,0,1-.6-3V10.18a.57.57,0,0,1,.17-.43.58.58,0,0,1,.41-.17h2.57a.54.54,0,0,1,.43.17.57.57,0,0,1,.17.43v6.6c0,1.8.79,2.71,2.37,2.71a2.34,2.34,0,0,0,1.8-.72,2.81,2.81,0,0,0,.66-2v-6.6a.58.58,0,0,1,.56-.6H133a.54.54,0,0,1,.41.17.57.57,0,0,1,.17.43V21.54a.66.66,0,0,1-.17.44.58.58,0,0,1-.41.17h-2.37a.58.58,0,0,1-.6-.56v-1a4.11,4.11,0,0,1-1.62,1.33A5.85,5.85,0,0,1,126,22.39Z" style="fill:#fff"/><path d="M137.25,22.15a.58.58,0,0,1-.41-.17.57.57,0,0,1-.17-.44V10.18a.54.54,0,0,1,.17-.43.49.49,0,0,1,.41-.17h2.24a.57.57,0,0,1,.43.17.55.55,0,0,1,.18.43V11a4.13,4.13,0,0,1,3.34-1.66,3.79,3.79,0,0,1,3.85,2.12,4.13,4.13,0,0,1,1.6-1.53,4.83,4.83,0,0,1,4.58,0,4,4,0,0,1,1.61,1.74,6.6,6.6,0,0,1,.59,3v6.89a.57.57,0,0,1-.17.44.58.58,0,0,1-.41.17H152.7a.58.58,0,0,1-.41-.17.66.66,0,0,1-.17-.44V14.85a3.61,3.61,0,0,0-.29-1.56,1.81,1.81,0,0,0-.76-.81,2.41,2.41,0,0,0-1-.24,2.17,2.17,0,0,0-1,.24,1.85,1.85,0,0,0-.78.81,3.35,3.35,0,0,0-.3,1.56v6.69a.58.58,0,0,1-.55.61H145a.66.66,0,0,1-.44-.17.6.6,0,0,1-.16-.44V14.85a3.61,3.61,0,0,0-.29-1.56,1.73,1.73,0,0,0-.77-.81,2.17,2.17,0,0,0-1-.24,2.06,2.06,0,0,0-1,.25,1.87,1.87,0,0,0-.79.81,3.31,3.31,0,0,0-.3,1.52v6.72a.66.66,0,0,1-.17.44.58.58,0,0,1-.41.17Z" style="fill:#fff"/><path d="M163.25,22.39a4.84,4.84,0,0,1-2.47-.64,4.29,4.29,0,0,1-1.67-1.86,6.6,6.6,0,0,1-.59-3V10.18a.54.54,0,0,1,.17-.43.54.54,0,0,1,.41-.17h2.56a.58.58,0,0,1,.6.56v6.64c0,1.8.79,2.71,2.37,2.71a2.34,2.34,0,0,0,1.8-.72,2.75,2.75,0,0,0,.67-2v-6.6a.58.58,0,0,1,.56-.6h2.6a.55.55,0,0,1,.42.17.56.56,0,0,1,.16.43V21.54a.6.6,0,0,1-.16.44.59.59,0,0,1-.42.17H167.9a.61.61,0,0,1-.44-.17.66.66,0,0,1-.17-.44V20.6a4.11,4.11,0,0,1-1.62,1.33A5.89,5.89,0,0,1,163.25,22.39Z" style="fill:#fff"/><path d="M174.49,22.15a.61.61,0,0,1-.43-.17.66.66,0,0,1-.17-.44V5.59a.66.66,0,0,1,.17-.44.61.61,0,0,1,.43-.17h2.42a.58.58,0,0,1,.41.17.66.66,0,0,1,.17.44v16a.66.66,0,0,1-.17.44.58.58,0,0,1-.41.17Z" style="fill:#fff"/><path d="M184.23,22.39a5.17,5.17,0,0,1-2.29-.5,4.21,4.21,0,0,1-1.62-1.34A3.29,3.29,0,0,1,181.1,16a8.65,8.65,0,0,1,3.67-1.36l3.16-.45v-.44a2.16,2.16,0,0,0-.43-1.45,1.92,1.92,0,0,0-1.53-.51,2.31,2.31,0,0,0-1.28.32,2.19,2.19,0,0,0-.75.82.59.59,0,0,1-.55.31h-2.3a.53.53,0,0,1-.41-.15.44.44,0,0,1-.12-.38,2,2,0,0,1,.31-1,4.56,4.56,0,0,1,1-1.1,5.63,5.63,0,0,1,1.67-.9A7.61,7.61,0,0,1,186,9.34a8.27,8.27,0,0,1,2.61.36,4.53,4.53,0,0,1,1.74,1,4.16,4.16,0,0,1,1,1.51,5.29,5.29,0,0,1,.31,1.85v7.47a.66.66,0,0,1-.17.44.61.61,0,0,1-.43.17h-2.37a.58.58,0,0,1-.41-.17.57.57,0,0,1-.17-.44v-.89a3.85,3.85,0,0,1-.85.86,4.46,4.46,0,0,1-1.27.64A5.51,5.51,0,0,1,184.23,22.39Zm1-2.52a3,3,0,0,0,1.43-.33,2.41,2.41,0,0,0,1-1,3.85,3.85,0,0,0,.36-1.77v-.41l-2.25.36a4.78,4.78,0,0,0-1.91.66,1.28,1.28,0,0,0-.6,1.06,1.17,1.17,0,0,0,.28.8,1.68,1.68,0,0,0,.73.5,2.65,2.65,0,0,0,.93.13Z" style="fill:#fff"/><path d="M200.5,22.15a6.09,6.09,0,0,1-2.56-.5,3.37,3.37,0,0,1-1.61-1.53,5.72,5.72,0,0,1-.54-2.61V12.43H193.9a.61.61,0,0,1-.43-.17.57.57,0,0,1-.17-.44V10.18a.58.58,0,0,1,.6-.6h1.89v-4a.6.6,0,0,1,.6-.61h2.37a.58.58,0,0,1,.61.55V9.58h3a.58.58,0,0,1,.41.17.57.57,0,0,1,.17.43v1.64a.61.61,0,0,1-.17.44.58.58,0,0,1-.41.17h-3v4.78a2.67,2.67,0,0,0,.32,1.44,1.24,1.24,0,0,0,1.15.52h1.76a.58.58,0,0,1,.41.17.54.54,0,0,1,.17.41v1.79A.58.58,0,0,1,203,22a.58.58,0,0,1-.41.17Z" style="fill:#fff"/><path d="M210.89,22.39a6.15,6.15,0,0,1-4.41-1.55,6.18,6.18,0,0,1-1.72-4.5v-1a7.2,7.2,0,0,1,.84-3.21,5.06,5.06,0,0,1,2.1-2,6.69,6.69,0,0,1,3.17-.71,6.31,6.31,0,0,1,3.4.83,5.18,5.18,0,0,1,2,2.27,7.5,7.5,0,0,1,.69,3.3v.56a.52.52,0,0,1-.18.41.59.59,0,0,1-.42.17H208.5v.19a3.83,3.83,0,0,0,.3,1.41,2.52,2.52,0,0,0,.8,1,2,2,0,0,0,1.25.39,2.63,2.63,0,0,0,1-.17,2.26,2.26,0,0,0,.64-.41,2.86,2.86,0,0,0,.37-.41,1.73,1.73,0,0,1,.35-.31,1,1,0,0,1,.43-.06h2.51a.63.63,0,0,1,.4.14.42.42,0,0,1,.13.37,2,2,0,0,1-.4,1,4.46,4.46,0,0,1-1.1,1.11,6.46,6.46,0,0,1-1.8.9A7.48,7.48,0,0,1,210.89,22.39Zm-2.39-7.71h4.74a3.72,3.72,0,0,0-.28-1.51,2.33,2.33,0,0,0-.81-1,2.46,2.46,0,0,0-2.56,0,2.33,2.33,0,0,0-.81,1,3.72,3.72,0,0,0-.28,1.51Z" style="fill:#fff"/><path d="M224.09,22.39a5.62,5.62,0,0,1-2.15-.4,4.25,4.25,0,0,1-1.59-1.16,5.27,5.27,0,0,1-1-1.81,9.82,9.82,0,0,1-.41-2.34V15a8.61,8.61,0,0,1,.4-2.3,5.8,5.8,0,0,1,1-1.8,4.25,4.25,0,0,1,1.6-1.18,5.33,5.33,0,0,1,2.16-.42,5,5,0,0,1,2.15.42,4.34,4.34,0,0,1,1.48,1.1V5.59a.58.58,0,0,1,.55-.61h2.54a.58.58,0,0,1,.41.17.66.66,0,0,1,.17.44v16a.66.66,0,0,1-.17.44.58.58,0,0,1-.41.17H228.5a.58.58,0,0,1-.41-.17.66.66,0,0,1-.17-.44v-.82A4.93,4.93,0,0,1,226.4,22,5.1,5.1,0,0,1,224.09,22.39Zm1.11-2.9a2.38,2.38,0,0,0,1.44-.41,2.44,2.44,0,0,0,.8-1,3.93,3.93,0,0,0,.28-1.36c0-.3.05-.61.05-.92a8.85,8.85,0,0,0-.05-.89,3.68,3.68,0,0,0-.29-1.27,2.55,2.55,0,0,0-.81-1,2.38,2.38,0,0,0-1.42-.38,2.41,2.41,0,0,0-1.45.39,2.25,2.25,0,0,0-.76,1.06,5.77,5.77,0,0,0-.28,1.42,9.39,9.39,0,0,0,0,1.5A5.76,5.76,0,0,0,223,18a2.22,2.22,0,0,0,.76,1.05A2.4,2.4,0,0,0,225.2,19.49Z" style="fill:#fff"/><path d="M77.4,47.63a.57.57,0,0,1-.44-.17A.56.56,0,0,1,76.8,47V31.32a.6.6,0,0,1,.16-.44.66.66,0,0,1,.44-.17H88.18a.66.66,0,0,1,.44.17.6.6,0,0,1,.16.44v2a.55.55,0,0,1-.49.6H80.57V38H87.7a.58.58,0,0,1,.6.56v2.1a.58.58,0,0,1-.17.41.61.61,0,0,1-.43.17H80.57V47a.61.61,0,0,1-.17.43.57.57,0,0,1-.44.17Z" style="fill:#fff"/><path d="M91.76,33.13a.58.58,0,0,1-.58-.58v-2a.58.58,0,0,1,.17-.45.52.52,0,0,1,.41-.18H94.3a.6.6,0,0,1,.44.18.63.63,0,0,1,.18.45v1.93a.55.55,0,0,1-.18.44.66.66,0,0,1-.44.17Zm.07,14.5a.54.54,0,0,1-.41-.17.61.61,0,0,1-.17-.43V35.67a.61.61,0,0,1,.17-.44.58.58,0,0,1,.41-.17h2.42a.58.58,0,0,1,.6.61V47a.61.61,0,0,1-.17.43.54.54,0,0,1-.43.17Z" style="fill:#fff"/><path d="M98.45,47.63a.54.54,0,0,1-.41-.17.61.61,0,0,1-.17-.43V35.67a.61.61,0,0,1,.17-.44.58.58,0,0,1,.41-.17h2.37a.66.66,0,0,1,.44.17.6.6,0,0,1,.16.44v.94A4.9,4.9,0,0,1,103,35.33a5.17,5.17,0,0,1,2.42-.51,4.76,4.76,0,0,1,2.5.64,4.55,4.55,0,0,1,1.7,1.86,6.49,6.49,0,0,1,.61,3V47a.6.6,0,0,1-.6.6H107.1a.54.54,0,0,1-.43-.17.61.61,0,0,1-.17-.43V40.4a2.9,2.9,0,0,0-.62-2,2.25,2.25,0,0,0-1.8-.71,2.4,2.4,0,0,0-1.81.71,2.81,2.81,0,0,0-.68,2V47a.54.54,0,0,1-.17.43.54.54,0,0,1-.41.17Z" style="fill:#fff"/><path d="M116.87,47.87a5.23,5.23,0,0,1-2.3-.49A4.35,4.35,0,0,1,113,46a3.27,3.27,0,0,1-.6-1.89,3.15,3.15,0,0,1,1.39-2.71,8.59,8.59,0,0,1,3.66-1.35l3.17-.46V39.2a2.16,2.16,0,0,0-.44-1.45,1.9,1.9,0,0,0-1.52-.51,2.3,2.3,0,0,0-1.28.31,2.36,2.36,0,0,0-.75.82.62.62,0,0,1-.56.32h-2.29a.52.52,0,0,1-.41-.16.42.42,0,0,1-.12-.37,2,2,0,0,1,.31-1,3.89,3.89,0,0,1,1-1.1,5.39,5.39,0,0,1,1.66-.91,7.51,7.51,0,0,1,2.49-.36,8.27,8.27,0,0,1,2.61.36,4.32,4.32,0,0,1,1.75,1,4.16,4.16,0,0,1,1,1.51,5.3,5.3,0,0,1,.32,1.85V47a.61.61,0,0,1-.17.43.57.57,0,0,1-.44.17h-2.37a.54.54,0,0,1-.41-.17.61.61,0,0,1-.17-.43v-.9A3.61,3.61,0,0,1,120,47a4.34,4.34,0,0,1-1.27.64A5.8,5.8,0,0,1,116.87,47.87Zm1-2.51a3,3,0,0,0,1.42-.34,2.3,2.3,0,0,0,1-1,3.7,3.7,0,0,0,.37-1.76v-.41l-2.25.36a4.48,4.48,0,0,0-1.91.65,1.25,1.25,0,0,0-.33,1.86,1.6,1.6,0,0,0,.74.51,2.91,2.91,0,0,0,.93.13Z" style="fill:#fff"/><path d="M127.77,47.63a.54.54,0,0,1-.41-.17.61.61,0,0,1-.17-.43V35.67a.61.61,0,0,1,.17-.44.58.58,0,0,1,.41-.17h2.37a.66.66,0,0,1,.44.17.6.6,0,0,1,.16.44v.94a5,5,0,0,1,4-1.79,4.76,4.76,0,0,1,2.5.64A4.47,4.47,0,0,1,139,37.32a6.35,6.35,0,0,1,.62,3V47a.6.6,0,0,1-.6.6h-2.57a.54.54,0,0,1-.43-.17.61.61,0,0,1-.17-.43V40.4a3,3,0,0,0-.62-2,2.25,2.25,0,0,0-1.8-.71,2.4,2.4,0,0,0-1.81.71,2.81,2.81,0,0,0-.68,2V47a.54.54,0,0,1-.17.43.54.54,0,0,1-.41.17Z" style="fill:#fff"/><path d="M148.07,47.87a6.91,6.91,0,0,1-3.1-.65,4.93,4.93,0,0,1-2.12-1.9,6.08,6.08,0,0,1-.84-3v-2a6.1,6.1,0,0,1,.83-3,4.93,4.93,0,0,1,2.12-1.9,7.09,7.09,0,0,1,3.11-.65,7.62,7.62,0,0,1,2.76.45,5.61,5.61,0,0,1,1.86,1.12,4.7,4.7,0,0,1,1.08,1.42,3.61,3.61,0,0,1,.37,1.29.48.48,0,0,1-.16.42.6.6,0,0,1-.42.18H151a.5.5,0,0,1-.37-.13,1.34,1.34,0,0,1-.25-.37,2.57,2.57,0,0,0-.87-1.21,2.41,2.41,0,0,0-1.33-.37,2.2,2.2,0,0,0-1.72.71,3.38,3.38,0,0,0-.68,2.17v1.72a3.45,3.45,0,0,0,.69,2.17,2.2,2.2,0,0,0,1.71.68,2.29,2.29,0,0,0,1.35-.36,2.79,2.79,0,0,0,.85-1.21,1,1,0,0,1,.24-.38A.56.56,0,0,1,151,43h2.59a.6.6,0,0,1,.42.18.48.48,0,0,1,.16.42,3.46,3.46,0,0,1-.23,1,4.61,4.61,0,0,1-.65,1.14,5.56,5.56,0,0,1-1.15,1.07,5.64,5.64,0,0,1-1.7.8A8.21,8.21,0,0,1,148.07,47.87Z" style="fill:#fff"/><path d="M162.12,47.87a5.64,5.64,0,0,1-6.13-5.1,5.41,5.41,0,0,1,0-.9v-1a7.16,7.16,0,0,1,.84-3.2,5,5,0,0,1,2.11-2.06,6.77,6.77,0,0,1,3.16-.71,6.52,6.52,0,0,1,3.4.83,5.33,5.33,0,0,1,2,2.28,7.5,7.5,0,0,1,.69,3.3v.55a.52.52,0,0,1-.18.41.59.59,0,0,1-.42.17h-7.91v.2A4,4,0,0,0,160,44a2.42,2.42,0,0,0,.79,1,2,2,0,0,0,1.25.38,2.3,2.3,0,0,0,1-.17,2.26,2.26,0,0,0,.64-.41,2.93,2.93,0,0,0,.38-.41,1.27,1.27,0,0,1,.35-.3,1,1,0,0,1,.42-.06h2.51a.58.58,0,0,1,.4.13.39.39,0,0,1,.13.38,2,2,0,0,1-.39,1,4.46,4.46,0,0,1-1.1,1.11,6.49,6.49,0,0,1-1.8.91A7.88,7.88,0,0,1,162.12,47.87Zm-2.4-7.71h4.74a3.72,3.72,0,0,0-.28-1.51,2.34,2.34,0,0,0-3.11-1.14l-.26.14a2.33,2.33,0,0,0-.81,1,3.89,3.89,0,0,0-.28,1.51Z" style="fill:#fff"/><polygon points="16.95 29.94 22.52 29.94 19.75 22.2 16.95 29.94" style="fill:#fff"/><path d="M27.53,0A27.53,27.53,0,1,0,55.06,27.53,27.54,27.54,0,0,0,27.53,0Zm1.29,36.37a.55.55,0,0,1-.16.39.52.52,0,0,1-.4.18h-2.8a.8.8,0,0,1-.59-.19.79.79,0,0,1-.24-.35l-1.16-3H16l-1.16,3a.79.79,0,0,1-.24.35.8.8,0,0,1-.59.19H11.18a.59.59,0,0,1-.57-.57,1,1,0,0,1,0-.24L17,18.84a1.14,1.14,0,0,1,.32-.51,1,1,0,0,1,.67-.21h3.44a1,1,0,0,1,.67.21,1.16,1.16,0,0,1,.33.51l6.39,17.29A1,1,0,0,1,28.82,36.37ZM44.46,21.08a.71.71,0,0,1-.19.48.65.65,0,0,1-.49.19H35.31v4.54h7.93a.63.63,0,0,1,.48.19.71.71,0,0,1,.19.48v2.29a.66.66,0,0,1-.19.46.7.7,0,0,1-.48.18H35.31v6.37a.65.65,0,0,1-.62.68H31.78a.71.71,0,0,1-.48-.19.65.65,0,0,1-.19-.49V18.79a.61.61,0,0,1,.19-.48.63.63,0,0,1,.48-.19h12a.65.65,0,0,1,.68.62v2.34Z" style="fill:#fff"/></svg>