<svg id="Layer_1" data-name="Layer 1" xmlns="http://www.w3.org/2000/svg" xmlns:xlink="http://www.w3.org/1999/xlink" viewBox="0 0 603 143"><defs><clipPath id="clip-path"><rect width="603" height="143" style="fill:none"/></clipPath><linearGradient id="linear-gradient" x1="71.5" y1="144" x2="71.5" y2="1" gradientTransform="matrix(1, 0, 0, -1, 0, 144)" gradientUnits="userSpaceOnUse"><stop offset="0" stop-color="#4d02e0"/><stop offset="1" stop-color="#8a2ae2"/></linearGradient><linearGradient id="linear-gradient-2" x1="40.76" y1="97.53" x2="40.76" y2="47.47" gradientTransform="matrix(1, 0, 0, -1, 0, 144)" gradientUnits="userSpaceOnUse"><stop offset="0" stop-color="#8911f5"/><stop offset="1" stop-color="#fff"/></linearGradient><clipPath id="clip-path-2"><rect x="196" y="13" width="407" height="112" style="fill:none"/></clipPath></defs><g style="clip-path:url(#clip-path)"><circle cx="71.5" cy="71.5" r="71.5" style="fill:url(#linear-gradient)"/><path d="M57.92,59.7s-11.79,21.89-20,36.83H23.59L50.76,46.47Z" style="fill:url(#linear-gradient-2)"/><path d="M43.62,59.7s11.78,21.89,20,36.83h14.3L50.76,46.47Z" style="fill:#fff"/><path d="M80.79,96.53V46.47H119.4L116.84,57.2H93V67.93h23.89V78.65H93V96.53Z" style="fill:#fff"/><g style="clip-path:url(#clip-path-2)"><path d="M197.33,57.81a1,1,0,0,1-.52-.1,1.1,1.1,0,0,1-.42-.32,1.46,1.46,0,0,1-.29-.41,1.44,1.44,0,0,1-.1-.5,5,5,0,0,1,0-.55l15.07-40.61a2.3,2.3,0,0,1,.76-1.17,2.16,2.16,0,0,1,1.56-.52h8.09a2.29,2.29,0,0,1,1.56.52,2.71,2.71,0,0,1,.76,1.17l15,40.61a1.69,1.69,0,0,1,0,.55,1.33,1.33,0,0,1-.39.91,1.3,1.3,0,0,1-.42.32,1.34,1.34,0,0,1-.52.1H231a1.75,1.75,0,0,1-.75-.08,1.94,1.94,0,0,1-.66-.36,2.3,2.3,0,0,1-.54-.81l-2.61-7.08H208.54l-2.61,7.08a2,2,0,0,1-.57.81,1.85,1.85,0,0,1-.64.36,1.69,1.69,0,0,1-.74.08Zm13.53-16.48h13l-6.49-18.28Z" style="fill:#fff"/><path d="M257.69,58.44a18.17,18.17,0,0,1-8.08-1.7,13.07,13.07,0,0,1-5.53-5,16,16,0,0,1-2.19-7.84V38.72a16,16,0,0,1,2.17-7.83,13,13,0,0,1,5.52-4.83,18.61,18.61,0,0,1,8.11-1.7,19.86,19.86,0,0,1,7.2,1.17,15.13,15.13,0,0,1,4.85,2.93,12.43,12.43,0,0,1,2.81,3.71,9,9,0,0,1,1,3.37,1.2,1.2,0,0,1-.08.59,1.09,1.09,0,0,1-.34.5,1.46,1.46,0,0,1-.5.35,1.48,1.48,0,0,1-.59.12h-6.76a1.11,1.11,0,0,1-.51-.07,1.15,1.15,0,0,1-.45-.27,3.46,3.46,0,0,1-.65-1,6.68,6.68,0,0,0-2.27-3.16,6.08,6.08,0,0,0-3.47-1,5.7,5.7,0,0,0-2.48.42,5.78,5.78,0,0,0-2.06,1.44,8.8,8.8,0,0,0-1.72,5.58V43.6a9,9,0,0,0,1.72,5.75,5.81,5.81,0,0,0,2,1.38,5.9,5.9,0,0,0,2.42.4,6,6,0,0,0,3.52-.94,7.06,7.06,0,0,0,2.3-3.24,2.49,2.49,0,0,1,.62-1,1.39,1.39,0,0,1,1-.34H272a1.48,1.48,0,0,1,.59.12,1.46,1.46,0,0,1,.5.35,1.12,1.12,0,0,1,.34.49,1.23,1.23,0,0,1,.08.6,8.94,8.94,0,0,1-.6,2.61,11.7,11.7,0,0,1-1.69,3,14.19,14.19,0,0,1-3,2.79,15.57,15.57,0,0,1-4.44,2.09A21.29,21.29,0,0,1,257.69,58.44Z" style="fill:#fff"/><path d="M294.25,58.44a18.15,18.15,0,0,1-8.08-1.7,13,13,0,0,1-5.53-5,15.67,15.67,0,0,1-2.19-7.84V38.72a15.63,15.63,0,0,1,2.16-7.83,13,13,0,0,1,5.5-4.83,18.77,18.77,0,0,1,8.14-1.7,19.86,19.86,0,0,1,7.2,1.17,15.24,15.24,0,0,1,4.85,2.93,12.12,12.12,0,0,1,2.79,3.71,9,9,0,0,1,1,3.37,1.32,1.32,0,0,1-.08.59,1.17,1.17,0,0,1-.34.5,1.46,1.46,0,0,1-.5.35,1.52,1.52,0,0,1-.59.12h-6.76a1.17,1.17,0,0,1-.52-.07,1.19,1.19,0,0,1-.44-.27,4,4,0,0,1-.55-1A6.34,6.34,0,0,0,298,32.64a6,6,0,0,0-3.47-1,5.73,5.73,0,0,0-2.56.38,5.65,5.65,0,0,0-2.13,1.48,8.64,8.64,0,0,0-1.67,5.58V43.6a9,9,0,0,0,1.8,5.67,5.67,5.67,0,0,0,4.43,1.78,6.1,6.1,0,0,0,3.55-.94A6.78,6.78,0,0,0,300.3,47a2.75,2.75,0,0,1,.65-1,1.39,1.39,0,0,1,1-.34h6.76a1.52,1.52,0,0,1,.59.12,1.46,1.46,0,0,1,.5.35,1.21,1.21,0,0,1,.34.49,1.37,1.37,0,0,1,.08.6,8.94,8.94,0,0,1-.6,2.61,11.74,11.74,0,0,1-1.7,3,14.19,14.19,0,0,1-3,2.79,15.51,15.51,0,0,1-4.43,2.09A21.53,21.53,0,0,1,294.25,58.44Z" style="fill:#fff"/><path d="M328.28,58.44a12.23,12.23,0,0,1-6.44-1.67,10.87,10.87,0,0,1-4.36-4.86,17.48,17.48,0,0,1-1.54-7.84V26.58A1.65,1.65,0,0,1,316,26a1.58,1.58,0,0,1,.35-.53,1.51,1.51,0,0,1,.49-.33,1.28,1.28,0,0,1,.58-.11h6.67a1.4,1.4,0,0,1,.61.1,1.45,1.45,0,0,1,.52.35,1.61,1.61,0,0,1,.34.52,1.65,1.65,0,0,1,.1.62V43.81q0,7,6.18,7A6,6,0,0,0,336.57,49a7.31,7.31,0,0,0,1.75-5.22V26.58a1.46,1.46,0,0,1,.09-.62,1.61,1.61,0,0,1,.34-.52,1.45,1.45,0,0,1,.52-.35,1.4,1.4,0,0,1,.61-.1h6.67a1.36,1.36,0,0,1,.6.11,1.5,1.5,0,0,1,.5.33A1.6,1.6,0,0,1,348,26a1.47,1.47,0,0,1,.1.62V56.24a1.6,1.6,0,0,1-.1.61,1.56,1.56,0,0,1-.32.52,1.58,1.58,0,0,1-.5.34,1.52,1.52,0,0,1-.6.1H340.4a1.47,1.47,0,0,1-.62-.1,1.42,1.42,0,0,1-.53-.34,1.77,1.77,0,0,1-.33-.52,1.57,1.57,0,0,1-.11-.61V53.76a10.43,10.43,0,0,1-4.22,3.48A14.72,14.72,0,0,1,328.28,58.44Z" style="fill:#fff"/><path d="M357.66,57.81a1.42,1.42,0,0,1-.58-.1,1.54,1.54,0,0,1-.49-.34,1.77,1.77,0,0,1-.33-.52,1.57,1.57,0,0,1-.11-.61V26.58a1.52,1.52,0,0,1,.93-1.48,1.3,1.3,0,0,1,.58-.11h5.74a1.57,1.57,0,0,1,1.09.44,1.48,1.48,0,0,1,.47,1.15v2.09a10.41,10.41,0,0,1,3.5-3,11.42,11.42,0,0,1,5.21-1.33,9.86,9.86,0,0,1,10.07,5.61,11.1,11.1,0,0,1,4.2-4,12.17,12.17,0,0,1,6-1.54,11.9,11.9,0,0,1,5.95,1.49,10.46,10.46,0,0,1,4.17,4.54,17.21,17.21,0,0,1,1.56,7.84v18a1.55,1.55,0,0,1-.1.6,1.51,1.51,0,0,1-.34.52,1.31,1.31,0,0,1-.49.34,1.42,1.42,0,0,1-.58.1h-6.26a1.24,1.24,0,0,1-.57-.08,1.45,1.45,0,0,1-.5-.31,1.72,1.72,0,0,1-.33-.51,1.61,1.61,0,0,1-.11-.61V38.75a8.93,8.93,0,0,0-.75-4.08,4.52,4.52,0,0,0-2-2.11,5.86,5.86,0,0,0-2.6-.63,5.62,5.62,0,0,0-2.61.63,4.76,4.76,0,0,0-2,2.11,9,9,0,0,0-.79,4.08V56.24a1.41,1.41,0,0,1-.11.61,1.58,1.58,0,0,1-.33.52,1.55,1.55,0,0,1-.53.34,1.45,1.45,0,0,1-.62.1h-6.15a1.57,1.57,0,0,1-.61-.1,1.63,1.63,0,0,1-.51-.34,1.38,1.38,0,0,1-.34-.52,1.57,1.57,0,0,1-.11-.61V38.75a9.23,9.23,0,0,0-.75-4.08,4.6,4.6,0,0,0-2-2.11,5.91,5.91,0,0,0-2.61-.63,5.55,5.55,0,0,0-2.61.68,4.94,4.94,0,0,0-2.06,2.09,8.45,8.45,0,0,0-.75,4V56.24a1.78,1.78,0,0,1-.11.61,1.61,1.61,0,0,1-.34.52,1.33,1.33,0,0,1-1.07.44Z" style="fill:#fff"/><path d="M425.46,58.44A12.33,12.33,0,0,1,419,56.77a11,11,0,0,1-4.35-4.86,17.76,17.76,0,0,1-1.54-7.84V26.58A1.52,1.52,0,0,1,414,25.1a1.28,1.28,0,0,1,.58-.11h6.68a1.45,1.45,0,0,1,.61.1,1.64,1.64,0,0,1,.52.35,1.44,1.44,0,0,1,.33.52,1.47,1.47,0,0,1,.1.62V43.81q0,7,6.18,7A6,6,0,0,0,433.72,49a7.34,7.34,0,0,0,1.72-5.22V26.58a1.59,1.59,0,0,1,.45-1.15,1.55,1.55,0,0,1,.53-.34A1.42,1.42,0,0,1,437,25h6.67a1.28,1.28,0,0,1,.58.11,1.52,1.52,0,0,1,.93,1.48V56.24a1.41,1.41,0,0,1-.11.61,1.58,1.58,0,0,1-.33.52,1.54,1.54,0,0,1-.49.34,1.42,1.42,0,0,1-.58.1h-6.26a1.47,1.47,0,0,1-.62-.1,1.55,1.55,0,0,1-.53-.34,1.77,1.77,0,0,1-.33-.52,1.57,1.57,0,0,1-.11-.61V53.76a10.45,10.45,0,0,1-4.2,3.48A14.84,14.84,0,0,1,425.46,58.44Z" style="fill:#fff"/><path d="M454.66,57.81a1.47,1.47,0,0,1-.62-.1,1.42,1.42,0,0,1-.53-.34,1.77,1.77,0,0,1-.33-.52,1.57,1.57,0,0,1-.11-.61V14.57a1.57,1.57,0,0,1,.11-.61,1.77,1.77,0,0,1,.33-.52,2,2,0,0,1,.53-.34,1.65,1.65,0,0,1,.62-.1H461a1.6,1.6,0,0,1,.57.11,1.41,1.41,0,0,1,.49.33,1.54,1.54,0,0,1,.35.52,1.57,1.57,0,0,1,.1.61V56.35a1.59,1.59,0,0,1-.14.57,1.51,1.51,0,0,1-.36.47,1.24,1.24,0,0,1-.48.34,1.51,1.51,0,0,1-.59.11Z" style="fill:#fff"/><path d="M480.06,58.44a13.5,13.5,0,0,1-6-1.28,11,11,0,0,1-4.28-3.5,8.47,8.47,0,0,1-1.56-4.94,8.21,8.21,0,0,1,3.68-7,22.13,22.13,0,0,1,9.54-3.52L489.7,37V35.8A5.56,5.56,0,0,0,488.56,32a5.08,5.08,0,0,0-1.84-1.1,4.93,4.93,0,0,0-2.12-.23,6,6,0,0,0-3.34.81,5.39,5.39,0,0,0-2,2.14,1.65,1.65,0,0,1-.61.62,1.68,1.68,0,0,1-.85.22h-6a1.49,1.49,0,0,1-.59-.09,1.72,1.72,0,0,1-.51-.33,1.33,1.33,0,0,1-.25-.45,1.31,1.31,0,0,1-.06-.52,5.17,5.17,0,0,1,.84-2.61,10.8,10.8,0,0,1,2.6-2.87,15.3,15.3,0,0,1,4.36-2.38,19.86,19.86,0,0,1,6.49-.94,21.85,21.85,0,0,1,6.81.94,11.27,11.27,0,0,1,4.53,2.61,10.5,10.5,0,0,1,2.61,4,13.92,13.92,0,0,1,.81,4.83v19.5a1.43,1.43,0,0,1-.1.61,1.56,1.56,0,0,1-.32.52,1.61,1.61,0,0,1-.52.34,1.47,1.47,0,0,1-.62.1h-6.18a1.35,1.35,0,0,1-.6,0,1.4,1.4,0,0,1-.53-.27,1.72,1.72,0,0,1-.33-.51,1.61,1.61,0,0,1-.11-.61V53.92A9.36,9.36,0,0,1,488,56.17a11.33,11.33,0,0,1-3.31,1.67A14.87,14.87,0,0,1,480.06,58.44Zm2.61-6.56a7.44,7.44,0,0,0,3.72-.89A6,6,0,0,0,489,48.38a10,10,0,0,0,.94-4.59V42.72l-5.84.94a11.9,11.9,0,0,0-5,1.69,3.31,3.31,0,0,0-1.15,1.2,3.34,3.34,0,0,0-.44,1.6,3.17,3.17,0,0,0,.73,2.06,4.18,4.18,0,0,0,1.93,1.33,7.05,7.05,0,0,0,2.37.34Z" style="fill:#fff"/><path d="M522.46,57.81a15.79,15.79,0,0,1-6.68-1.28,8.84,8.84,0,0,1-4.17-4,14.35,14.35,0,0,1-1.44-6.82V32.43h-4.9a1.56,1.56,0,0,1-.61-.09,1.87,1.87,0,0,1-.54-.33,1.62,1.62,0,0,1-.44-1.15V26.58a1.62,1.62,0,0,1,.44-1.15,1.77,1.77,0,0,1,.53-.34,1.47,1.47,0,0,1,.62-.1h4.9V14.57a1.58,1.58,0,0,1,.12-.61,1.54,1.54,0,0,1,.35-.52,1.59,1.59,0,0,1,1.13-.44h6.15a1.65,1.65,0,0,1,.62.1,2,2,0,0,1,.53.34,1.77,1.77,0,0,1,.33.52,1.57,1.57,0,0,1,.11.61V25h7.82a1.43,1.43,0,0,1,.58.12,1.33,1.33,0,0,1,.49.33,1.62,1.62,0,0,1,.44,1.14v4.26A1.62,1.62,0,0,1,528.4,32a1.43,1.43,0,0,1-.49.32,1.65,1.65,0,0,1-.58.1h-7.82V44.94a7,7,0,0,0,.86,3.76,3.25,3.25,0,0,0,1.3,1.08,3.1,3.1,0,0,0,1.67.27H528a1.52,1.52,0,0,1,1.51,1.52v4.67a1.57,1.57,0,0,1-.11.61,1.77,1.77,0,0,1-.33.52,1.66,1.66,0,0,1-.49.34,1.42,1.42,0,0,1-.58.1Z" style="fill:#fff"/><path d="M549.57,58.44a16,16,0,0,1-11.5-4,16.13,16.13,0,0,1-4.51-11.76V40.05a19.18,19.18,0,0,1,2.19-8.35,13.05,13.05,0,0,1,5.51-5.38,17.54,17.54,0,0,1,8.23-1.86,16.58,16.58,0,0,1,8.87,2.2,13.47,13.47,0,0,1,5.29,5.82,19.72,19.72,0,0,1,1.8,8.62v1.43A1.4,1.4,0,0,1,565,43.6a1.43,1.43,0,0,1-.5.34,1.51,1.51,0,0,1-.59.11h-20.6v.52a9.49,9.49,0,0,0,.78,3.68,6.22,6.22,0,0,0,2.09,2.61,5.18,5.18,0,0,0,3.23,1,6.15,6.15,0,0,0,2.61-.45,5.18,5.18,0,0,0,1.67-1.07,7.18,7.18,0,0,0,1-1.07,3.09,3.09,0,0,1,.91-.78,2.89,2.89,0,0,1,1.09-.16h6.55a1.5,1.5,0,0,1,1,.34,1.07,1.07,0,0,1,.31.45,1,1,0,0,1,.06.54,5.63,5.63,0,0,1-1,2.48,12,12,0,0,1-2.87,2.9,16.52,16.52,0,0,1-4.7,2.38A20.7,20.7,0,0,1,549.57,58.44ZM543.34,38.3h12.33a10.06,10.06,0,0,0-.7-3.94,6,6,0,0,0-2.14-2.61,6.39,6.39,0,0,0-6.67,0A6.21,6.21,0,0,0,544,34.36,10.25,10.25,0,0,0,543.34,38.3Z" style="fill:#fff"/><path d="M584,58.44a14.12,14.12,0,0,1-5.63-1,10.83,10.83,0,0,1-4.15-3,13.08,13.08,0,0,1-2.6-4.72,23.81,23.81,0,0,1-1.07-6.09V39.27a20.18,20.18,0,0,1,1-6,14.16,14.16,0,0,1,2.5-4.59,11.55,11.55,0,0,1,4.15-3.11,13.93,13.93,0,0,1,5.66-1.1,13.3,13.3,0,0,1,5.6,1.1,12.05,12.05,0,0,1,3.84,2.87V14.57a1.41,1.41,0,0,1,.11-.61,1.44,1.44,0,0,1,.33-.52,1.6,1.6,0,0,1,.54-.34,1.52,1.52,0,0,1,.63-.1h6.5a1.71,1.71,0,0,1,.59.11,1.4,1.4,0,0,1,.82.85,1.6,1.6,0,0,1,.1.61V56.35a1.59,1.59,0,0,1-.42,1.12,1.43,1.43,0,0,1-.5.34,1.34,1.34,0,0,1-.59.1h-6.05a1.5,1.5,0,0,1-.59-.1,1.36,1.36,0,0,1-.48-.34A1.51,1.51,0,0,1,594,57a1.73,1.73,0,0,1-.11-.6V54.21a12.34,12.34,0,0,1-4,3.1A12.83,12.83,0,0,1,584,58.44Zm2.9-7.58a6,6,0,0,0,3.75-1.07,6.21,6.21,0,0,0,2.06-2.61,10.34,10.34,0,0,0,.73-3.52c0-.81.13-1.6.13-2.41a22.55,22.55,0,0,0-.13-2.32,8.7,8.7,0,0,0-.76-3.32A6.31,6.31,0,0,0,590.56,33a7.24,7.24,0,0,0-7.46,0,5.64,5.64,0,0,0-2,2.61,13.2,13.2,0,0,0-.73,3.73,19.75,19.75,0,0,0,0,3.92,13,13,0,0,0,.73,3.71,5.46,5.46,0,0,0,2,2.61A6,6,0,0,0,586.89,50.86Z" style="fill:#fff"/><path d="M197.48,124.37a1.41,1.41,0,0,1-.61-.11,1.58,1.58,0,0,1-.52-.33,1.49,1.49,0,0,1-.36-.57,1.45,1.45,0,0,1-.08-.68V81.76a1.47,1.47,0,0,1,.1-.62,1.43,1.43,0,0,1,.34-.51,1.51,1.51,0,0,1,.52-.34,1.4,1.4,0,0,1,.61-.1h28.1a1.49,1.49,0,0,1,.63.1,1.46,1.46,0,0,1,.52.34,1.61,1.61,0,0,1,.34.52,1.57,1.57,0,0,1,.11.61v5.38a1.77,1.77,0,0,1-.11.6,1.61,1.61,0,0,1-.34.52,1.55,1.55,0,0,1-.53.34,1.62,1.62,0,0,1-.62.1H205.74V99.38h18.59a1.57,1.57,0,0,1,.61.11,1.46,1.46,0,0,1,.52.34,1.45,1.45,0,0,1,.33.51,1.61,1.61,0,0,1,.11.61v5.22a1.52,1.52,0,0,1-.11.6,1.31,1.31,0,0,1-.34.5,1.44,1.44,0,0,1-1.12.42H205.74v15a1.65,1.65,0,0,1-.1.62,1.52,1.52,0,0,1-.86.86,1.56,1.56,0,0,1-.6.11Z" style="fill:#fff"/><path d="M234.92,86.51a1.47,1.47,0,0,1-1.07-.44,1.64,1.64,0,0,1-.44-1.15v-5a1.65,1.65,0,0,1,.44-1.18,1.38,1.38,0,0,1,.48-.35,1.52,1.52,0,0,1,.59-.12h6.62a1.77,1.77,0,0,1,.64.12,1.58,1.58,0,0,1,.53.35,1.51,1.51,0,0,1,.36.54,1.54,1.54,0,0,1,.11.64v5a1.52,1.52,0,0,1-.47,1.15,1.72,1.72,0,0,1-1.17.44Zm.18,37.86a1.3,1.3,0,0,1-.58-.11,1.63,1.63,0,0,1-.49-.33,1.55,1.55,0,0,1-.29-.59,1.64,1.64,0,0,1,0-.66V93.12a1.61,1.61,0,0,1,.44-1.13,1.63,1.63,0,0,1,.49-.33,1.66,1.66,0,0,1,.58-.11h6.31a1.62,1.62,0,0,1,1.15.44,1.59,1.59,0,0,1,.42,1.13v29.56a1.4,1.4,0,0,1-.1.61,1.51,1.51,0,0,1-.32.53,1.59,1.59,0,0,1-1.15.45Z" style="fill:#fff"/><path d="M252.39,124.37a1.35,1.35,0,0,1-.59-.11,1.72,1.72,0,0,1-.51-.33,1.51,1.51,0,0,1-.32-.53,1.64,1.64,0,0,1-.09-.62V93.12a1.51,1.51,0,0,1,.09-.6,1.46,1.46,0,0,1,.32-.52,1.58,1.58,0,0,1,.5-.34,1.36,1.36,0,0,1,.6-.11h6.15a1.65,1.65,0,0,1,.62.1,1.72,1.72,0,0,1,.53.34,1.58,1.58,0,0,1,.33.52,1.41,1.41,0,0,1,.11.61V95.6a12.94,12.94,0,0,1,4.23-3.37,13.88,13.88,0,0,1,6.28-1.31,12.55,12.55,0,0,1,6.55,1.67,11.48,11.48,0,0,1,4.4,4.86,16.93,16.93,0,0,1,1.59,7.83v17.4a1.48,1.48,0,0,1-.11.62,1.35,1.35,0,0,1-.36.52,1.54,1.54,0,0,1-1.09.45h-6.68a1.58,1.58,0,0,1-1.14-.45,1.46,1.46,0,0,1-.34-.52,1.66,1.66,0,0,1-.11-.62V105.44a7.84,7.84,0,0,0-1.59-5.22,5.75,5.75,0,0,0-2.14-1.46,6,6,0,0,0-2.55-.4,6.44,6.44,0,0,0-2.57.43,6.35,6.35,0,0,0-2.18,1.43,7.25,7.25,0,0,0-1.74,5.22v17.24a1.66,1.66,0,0,1-.11.62,1.46,1.46,0,0,1-.34.52,1.25,1.25,0,0,1-.49.33,1.43,1.43,0,0,1-.58.12Z" style="fill:#fff"/><path d="M300.39,125a13.43,13.43,0,0,1-6-1.31,10.63,10.63,0,0,1-4.22-3.5,8.07,8.07,0,0,1-1.59-4.9,8.33,8.33,0,0,1,.9-4,8.21,8.21,0,0,1,2.72-3.07,22.44,22.44,0,0,1,9.57-3.53l8.24-1.2v-1.15a5.64,5.64,0,0,0-1.12-3.78,5,5,0,0,0-4-1.33,5.94,5.94,0,0,0-3.34.83,5.65,5.65,0,0,0-1.95,2.14,1.7,1.7,0,0,1-.61.61,1.59,1.59,0,0,1-.83.2h-6a1.39,1.39,0,0,1-.57-.08,1.41,1.41,0,0,1-.49-.31,1.21,1.21,0,0,1-.28-.46,1.18,1.18,0,0,1,0-.53,5.34,5.34,0,0,1,.81-2.61,10.4,10.4,0,0,1,2.61-2.88,13.76,13.76,0,0,1,4.35-2.37,19.36,19.36,0,0,1,6.5-.94,21.81,21.81,0,0,1,6.85,1,11.81,11.81,0,0,1,4.54,2.61,11,11,0,0,1,2.61,4,14.41,14.41,0,0,1,.68,4.83v19.41a1.66,1.66,0,0,1-.11.62,1.46,1.46,0,0,1-.34.52,1.57,1.57,0,0,1-.51.34,1.61,1.61,0,0,1-.61.11h-6.26a1.52,1.52,0,0,1-.59-.12,1.46,1.46,0,0,1-.5-.35,1.44,1.44,0,0,1-.33-.52,1.54,1.54,0,0,1-.09-.6v-2.33a9.87,9.87,0,0,1-2.22,2.25,11.58,11.58,0,0,1-3.31,1.67A14.39,14.39,0,0,1,300.39,125Zm2.61-6.55a7.85,7.85,0,0,0,3.73-1,6.2,6.2,0,0,0,2.61-2.61,10.07,10.07,0,0,0,.93-4.62v-1.07l-5.86.94a12.23,12.23,0,0,0-5,1.72,3.42,3.42,0,0,0-1.14,1.19,3.37,3.37,0,0,0-.43,1.58,3.17,3.17,0,0,0,.73,2.09A4.63,4.63,0,0,0,300.5,118a7.63,7.63,0,0,0,2.42.45Z" style="fill:#fff"/><path d="M328.81,124.37a1.46,1.46,0,0,1-1.4-1,1.48,1.48,0,0,1-.11-.62V93.12a1.57,1.57,0,0,1,.11-.61,1.77,1.77,0,0,1,.33-.52,1.54,1.54,0,0,1,1.07-.44H335a1.62,1.62,0,0,1,.62.1,1.72,1.72,0,0,1,.53.34,1.61,1.61,0,0,1,.34.52,1.57,1.57,0,0,1,.1.61V95.6a12.94,12.94,0,0,1,4.23-3.37,13.88,13.88,0,0,1,6.28-1.31,12.62,12.62,0,0,1,6.55,1.67,11.48,11.48,0,0,1,4.4,4.86,16.93,16.93,0,0,1,1.59,7.83v17.4a1.34,1.34,0,0,1-.11.62,1.45,1.45,0,0,1-.35.52,1.58,1.58,0,0,1-1.1.45h-6.68a1.58,1.58,0,0,1-1.14-.45,1.46,1.46,0,0,1-.34-.52,1.66,1.66,0,0,1-.11-.62V105.44a7.79,7.79,0,0,0-1.59-5.22,5.8,5.8,0,0,0-2.13-1.46,6.07,6.07,0,0,0-2.56-.4,6.33,6.33,0,0,0-4.75,1.86,7.25,7.25,0,0,0-1.74,5.22v17.24a1.48,1.48,0,0,1-.11.62,1.53,1.53,0,0,1-1.4,1Z" style="fill:#fff"/><path d="M381.77,125a18.61,18.61,0,0,1-8.11-1.7,13,13,0,0,1-5.5-5,15.67,15.67,0,0,1-2.22-7.83v-5.23a16.34,16.34,0,0,1,2.17-7.83,12.82,12.82,0,0,1,5.53-5,18.12,18.12,0,0,1,8.13-1.7,19.89,19.89,0,0,1,7.17,1.15,15.08,15.08,0,0,1,4.85,3,11.94,11.94,0,0,1,2.82,3.68,8.79,8.79,0,0,1,1,3.4,1.24,1.24,0,0,1-.06.6,1.29,1.29,0,0,1-.33.5,1.5,1.5,0,0,1-.51.35,1.58,1.58,0,0,1-.61.12h-6.73a1.37,1.37,0,0,1-.53-.08,1.14,1.14,0,0,1-.46-.27,4,4,0,0,1-.65-1,7,7,0,0,0-2.27-3,6.13,6.13,0,0,0-3.47-.94,5.75,5.75,0,0,0-4.48,1.83,8.77,8.77,0,0,0-1.75,5.69v4.47a9.09,9.09,0,0,0,1.8,5.69,5.82,5.82,0,0,0,2,1.38,5.69,5.69,0,0,0,2.41.4,5.85,5.85,0,0,0,3.52-1,6.8,6.8,0,0,0,2.22-3.16,2.3,2.3,0,0,1,.63-1,1.43,1.43,0,0,1,1-.34h6.73a1.41,1.41,0,0,1,.61.11,1.53,1.53,0,0,1,.51.36,1.22,1.22,0,0,1,.33.5,1.19,1.19,0,0,1,.06.59,7.82,7.82,0,0,1-.6,2.61,10.27,10.27,0,0,1-1.59,2.88,13.62,13.62,0,0,1-3,2.82,15.13,15.13,0,0,1-4.43,2.09A21.48,21.48,0,0,1,381.77,125Z" style="fill:#fff"/><path d="M418.38,125a14.78,14.78,0,0,1-16-15.67v-2.61a19.16,19.16,0,0,1,2.22-8.38A13.36,13.36,0,0,1,410.06,93a17.31,17.31,0,0,1,8.27-1.86,16.49,16.49,0,0,1,8.84,2.17,13.87,13.87,0,0,1,5.37,5.93,19.82,19.82,0,0,1,1.8,8.61v1.47a1.37,1.37,0,0,1-.13.59,1.32,1.32,0,0,1-.37.48,1.57,1.57,0,0,1-1.09.44h-20.6v.5a9.53,9.53,0,0,0,.78,3.71,6.56,6.56,0,0,0,2.09,2.61,5.19,5.19,0,0,0,3.23,1,6.3,6.3,0,0,0,2.61-.44,5.67,5.67,0,0,0,1.67-1.07,9.1,9.1,0,0,0,1-1.07,3,3,0,0,1,.91-.78,2.7,2.7,0,0,1,1.09-.16h6.58a1.43,1.43,0,0,1,1,.34,1.08,1.08,0,0,1,.31.43,1.21,1.21,0,0,1,.06.53,5.57,5.57,0,0,1-1.05,2.62,11.9,11.9,0,0,1-2.86,2.89,17.06,17.06,0,0,1-4.7,2.38A20.28,20.28,0,0,1,418.38,125Zm-6.23-20.13h12.36a10.29,10.29,0,0,0-.73-4,6.13,6.13,0,0,0-2.11-2.61,6.29,6.29,0,0,0-6.68,0,5.68,5.68,0,0,0-2.11,2.61A9.56,9.56,0,0,0,412.15,104.87Z" style="fill:#fff"/></g></g></svg>